<svg width="22" height="22" viewBox="0 0 22 22" fill="none" xmlns="http://www.w3.org/2000/svg">
<path d="M19.6427 10.975H19.6197L17.8001 6.80625C17.6301 6.41754 17.3531 6.08731 17.0027 5.85549C16.6522 5.62367 16.2433 5.5002 15.8254 5.5H6.17424C5.75636 5.50023 5.3475 5.62371 4.99709 5.85553C4.64668 6.08735 4.36974 6.41757 4.19975 6.80625L2.37998 10.975H2.35698C1.97507 10.9754 1.60893 11.1301 1.33888 11.405C1.06883 11.68 0.916933 12.0528 0.916504 12.4416V17.575C0.916933 17.9638 1.06883 18.3366 1.33888 18.6116C1.60893 18.8865 1.97507 19.0412 2.35698 19.0416V20.9C2.35731 21.1916 2.47124 21.4712 2.67378 21.6774C2.87631 21.8837 3.15091 21.9997 3.43734 22H5.95817C6.2446 21.9997 6.5192 21.8837 6.72173 21.6774C6.92426 21.4712 7.03819 21.1916 7.03853 20.9V19.0416H14.9611V20.9C14.9615 21.1916 15.0754 21.4712 15.2779 21.6774C15.4805 21.8837 15.7551 21.9997 16.0415 22H18.5623C18.8488 21.9997 19.1234 21.8837 19.3259 21.6774C19.5284 21.4712 19.6424 21.1916 19.6427 20.9V19.0416C20.0246 19.0412 20.3907 18.8865 20.6608 18.6116C20.9308 18.3366 21.0827 17.9638 21.0832 17.575V12.4416C21.0827 12.0528 20.9308 11.68 20.6608 11.405C20.3907 11.1301 20.0246 10.9754 19.6427 10.975ZM5.5159 7.40208C5.57257 7.27249 5.66491 7.16239 5.78175 7.08512C5.89859 7.00784 6.03492 6.9667 6.17424 6.96667H15.8254C15.9647 6.96674 16.101 7.0079 16.2178 7.08517C16.3346 7.16245 16.4269 7.27252 16.4836 7.40208L18.0432 10.9749H3.95631L5.5159 7.40208ZM5.59805 20.5333H3.79746V19.0416H5.59805V20.5333ZM18.2022 20.5333H16.4016V19.0416H18.2022V20.5333ZM19.6427 17.575H2.35698V12.4416H19.6427V17.575Z" fill="black"/>
<path d="M3.66667 14.1389H7.33333V15.5833H3.66667V14.1389ZM14.6667 14.1389H18.3333V15.5833H14.6667V14.1389ZM11 0L0 4.34958V5.90605L11 1.55652L22 5.90605V4.34958L11 0Z" fill="black"/>
</svg>
