<svg width="54" height="54" viewBox="0 0 54 54" fill="none" xmlns="http://www.w3.org/2000/svg">
<circle cx="27" cy="27" r="27" fill="#00BC39"/>
<path d="M22.7364 41.7273L20.3182 37.5909L15.5136 36.6045L16.0545 31.9273L13 28.3636L16.0545 24.8318L15.5136 20.1545L20.3182 19.1682L22.7364 15L27 16.9727L31.2636 15L33.7136 19.1682L38.4864 20.1545L37.9455 24.8318L41 28.3636L37.9455 31.9273L38.4864 36.6045L33.7136 37.5909L31.2636 41.7273L27 39.7545L22.7364 41.7273ZM23.5955 39.2136L27 37.7818L30.5 39.2136L32.6318 36.0318L36.3545 35.0773L35.9727 31.2909L38.55 28.3636L35.9727 25.3727L36.3545 21.5864L32.6318 20.6955L30.4364 17.5136L27 18.9455L23.5 17.5136L21.3682 20.6955L17.6455 21.5864L18.0273 25.3727L15.45 28.3636L18.0273 31.2909L17.6455 35.1409L21.3682 36.0318L23.5955 39.2136ZM25.6318 32.5955L32.8545 25.4364L31.4227 24.1318L25.6318 29.8591L22.6091 26.7091L21.1455 28.1409L25.6318 32.5955Z" fill="white"/>
</svg>
