<svg width="55" height="55" viewBox="0 0 55 55" fill="none" xmlns="http://www.w3.org/2000/svg">
<g clip-path="url(#clip0_945_82)">
<path d="M26.203 0.953888C33.1524 0.700875 39.9177 3.21887 45.0106 7.95394C50.1035 12.689 53.1068 19.2533 53.3598 26.2027C53.6128 33.1521 51.0948 39.9174 46.3598 45.0103C41.6247 50.1032 35.0604 53.1065 28.111 53.3595C21.1616 53.6125 14.3963 51.0945 9.30341 46.3594C4.21052 41.6244 1.20723 35.0601 0.954217 28.1107C0.701204 21.1613 3.2192 14.396 7.95427 9.30308C12.6893 4.2102 19.2536 1.2069 26.203 0.953888ZM15.6337 25.9364C15.1993 25.9522 14.7891 26.1399 14.4931 26.4582C14.1972 26.7765 14.0398 27.1993 14.0556 27.6337C14.0714 28.068 14.2591 28.4783 14.5774 28.7742C14.8957 29.0702 15.3186 29.2275 15.7529 29.2117L34.727 28.5209L27.9507 35.8059C27.6544 36.1246 27.4969 36.5479 27.5127 36.9828C27.5285 37.4177 27.7165 37.8285 28.0352 38.1248C28.3539 38.4211 28.7773 38.5787 29.2121 38.5629C29.647 38.547 30.0578 38.3591 30.3541 38.0404L39.8224 27.8566C39.9694 27.6989 40.0838 27.5138 40.1591 27.3118C40.2345 27.1098 40.2692 26.895 40.2613 26.6796C40.2535 26.4642 40.2032 26.2524 40.1134 26.0565C40.0236 25.8605 39.8961 25.6842 39.738 25.5376L29.5542 16.0693C29.2355 15.773 28.8121 15.6154 28.3772 15.6313C27.9424 15.6471 27.5316 15.835 27.2353 16.1538C26.9389 16.4725 26.7814 16.8958 26.7972 17.3307C26.813 17.7656 27.001 18.1764 27.3197 18.4727L34.6078 25.2456L15.6337 25.9364Z" fill="#49C0FF"/>
</g>
<defs>
<clipPath id="clip0_945_82">
<rect width="52.4403" height="52.4403" fill="white" transform="translate(1.9082 54.3135) rotate(-92.0851)"/>
</clipPath>
</defs>
</svg>
