<svg width="22" height="22" viewBox="0 0 22 22" fill="none" xmlns="http://www.w3.org/2000/svg">
<path d="M11.0002 3.66683C15.0436 3.66683 18.3335 6.95675 18.3335 11.0002C18.3335 15.0436 15.0436 18.3335 11.0002 18.3335C6.95675 18.3335 3.66683 15.0436 3.66683 11.0002C3.66683 6.95675 6.95675 3.66683 11.0002 3.66683ZM11.0002 1.8335C5.93741 1.8335 1.8335 5.93741 1.8335 11.0002C1.8335 16.0629 5.93741 20.1668 11.0002 20.1668C16.0629 20.1668 20.1668 16.0629 20.1668 11.0002C20.1668 5.93741 16.0629 1.8335 11.0002 1.8335ZM14.4835 14.1168L11.9168 10.6949V6.41683H10.0835V11.3054L13.0168 15.2159L14.4835 14.1168Z" fill="#49C0FF"/>
</svg>
