<svg width="16" height="20" viewBox="0 0 16 20" fill="none" xmlns="http://www.w3.org/2000/svg">
<path d="M4.77916 0.000117663C4.60095 0.0340118 4.44045 0.129796 4.32602 0.270551C4.21158 0.411306 4.15058 0.587974 4.15377 0.769348V1.53858H1.38916C0.773771 1.53858 0.307617 2.00473 0.307617 2.62012V18.8463C0.307617 19.5386 0.773771 20.0001 1.38916 20.0001H14.5384C15.1538 20.0001 15.6199 19.534 15.6199 18.9186V2.62012C15.6968 2.00473 15.2261 1.53858 14.6107 1.53858H11.8461V0.769348C11.8461 0.565336 11.765 0.369679 11.6208 0.22542C11.4765 0.0811614 11.2809 0.000117663 11.0768 0.000117663H4.923C4.89891 -0.00101578 4.87478 -0.00101578 4.85069 0.000117663C4.82661 -0.00101578 4.80248 -0.00101578 4.77839 0.000117663H4.77916ZM5.69223 1.53858H10.3076V3.07704H5.69223V1.53858ZM1.84608 3.07704H4.15377V3.84627C4.15377 4.05028 4.23481 4.24594 4.37907 4.3902C4.52333 4.53446 4.71899 4.6155 4.923 4.6155H11.0768C11.2809 4.6155 11.4765 4.53446 11.6208 4.3902C11.765 4.24594 11.8461 4.05028 11.8461 3.84627V3.07704H14.1538V18.4617H1.84608V3.07704ZM3.38454 6.92319V10.0001H6.46146V6.92319H3.38454ZM4.15377 7.69243H5.69223V9.23089H4.15377V7.69243ZM7.99993 7.69243V9.23089H12.6153V7.69243H7.99993ZM3.38454 11.5386V14.6155H6.46146V11.5386H3.38454ZM7.99993 12.3078V13.8463H12.6153V12.3078H7.99993Z" fill="white"/>
</svg>
