<svg width="54" height="55" viewBox="0 0 54 55" fill="none" xmlns="http://www.w3.org/2000/svg">
<circle cx="27" cy="27.3611" r="27" fill="#FD2C49"/>
<path d="M22.1656 34.9028L27 29.8611L31.875 34.9028L33.7844 32.9028L28.95 27.8611L33.7844 22.8194L31.875 20.8194L27 25.8611L22.1656 20.8194L20.2156 22.8194L25.0906 27.8611L20.2156 32.9028L22.1656 34.9028ZM18.1031 42.3611C17.4531 42.3611 16.8844 42.1111 16.3969 41.6111C15.9094 41.1111 15.6656 40.5278 15.6656 39.8611V16.1111H14V13.6111H21.6375V12.3611H32.3625V13.6111H40V16.1111H38.3344V39.8611C38.3344 40.5278 38.0906 41.1111 37.6031 41.6111C37.1156 42.1111 36.5469 42.3611 35.8969 42.3611H18.1031ZM35.8969 16.1111H18.1031V39.8611H35.8969V16.1111ZM18.1031 16.1111V39.8611V16.1111Z" fill="white"/>
</svg>
