<svg width="16" height="20" viewBox="0 0 16 20" fill="none" xmlns="http://www.w3.org/2000/svg">
<path d="M4.77916 -0.000126477C4.60095 0.0337677 4.44045 0.129552 4.32602 0.270307C4.21158 0.411061 4.15058 0.58773 4.15377 0.769104V1.53833H1.38916C0.773771 1.53833 0.307617 2.00449 0.307617 2.61987V18.846C0.307617 19.5383 0.773771 19.9999 1.38916 19.9999H14.5384C15.1538 19.9999 15.6199 19.5337 15.6199 18.9183V2.61987C15.6968 2.00449 15.2261 1.53833 14.6107 1.53833H11.8461V0.769104C11.8461 0.565092 11.765 0.369435 11.6208 0.225176C11.4765 0.0809172 11.2809 -0.000126477 11.0768 -0.000126477H4.923C4.89891 -0.00125992 4.87478 -0.00125992 4.85069 -0.000126477C4.82661 -0.00125992 4.80248 -0.00125992 4.77839 -0.000126477H4.77916ZM5.69223 1.53833H10.3076V3.0768H5.69223V1.53833ZM1.84608 3.0768H4.15377V3.84603C4.15377 4.05004 4.23481 4.2457 4.37907 4.38996C4.52333 4.53421 4.71899 4.61526 4.923 4.61526H11.0768C11.2809 4.61526 11.4765 4.53421 11.6208 4.38996C11.765 4.2457 11.8461 4.05004 11.8461 3.84603V3.0768H14.1538V18.4614H1.84608V3.0768ZM3.38454 6.92295V9.99987H6.46146V6.92295H3.38454ZM4.15377 7.69218H5.69223V9.23064H4.15377V7.69218ZM7.99993 7.69218V9.23064H12.6153V7.69218H7.99993ZM3.38454 11.5383V14.6153H6.46146V11.5383H3.38454ZM7.99993 12.3076V13.846H12.6153V12.3076H7.99993Z" fill="white"/>
</svg>
