<svg width="62" height="62" viewBox="0 0 62 62" fill="none" xmlns="http://www.w3.org/2000/svg">
<circle cx="31" cy="31" r="28" fill="#49C0FF" stroke="white" stroke-width="6"/>
<path d="M42 38C42 38.5304 41.7893 39.0391 41.4142 39.4142C41.0391 39.7893 40.5304 40 40 40H22C21.4696 40 20.9609 39.7893 20.5858 39.4142C20.2107 39.0391 20 38.5304 20 38V27C20 26.4696 20.2107 25.9609 20.5858 25.5858C20.9609 25.2107 21.4696 25 22 25H26L28 22H34L36 25H40C40.5304 25 41.0391 25.2107 41.4142 25.5858C41.7893 25.9609 42 26.4696 42 27V38Z" stroke="white" stroke-width="2" stroke-linecap="round" stroke-linejoin="round"/>
<path d="M31 36C33.2091 36 35 34.2091 35 32C35 29.7909 33.2091 28 31 28C28.7909 28 27 29.7909 27 32C27 34.2091 28.7909 36 31 36Z" stroke="white" stroke-width="2" stroke-linecap="round" stroke-linejoin="round"/>
</svg>
