<svg width="26" height="18" viewBox="0 0 26 18" fill="none" xmlns="http://www.w3.org/2000/svg">
<path d="M25.5 2.48161V15.445C25.5 16.0391 25.2554 16.548 24.7663 16.9714C24.2763 17.3942 23.6875 17.6056 23 17.6056H3C2.3125 17.6056 1.72417 17.3942 1.235 16.9714C0.745 16.548 0.5 16.0391 0.5 15.445V2.48161C0.5 1.88745 0.745 1.379 1.235 0.95625C1.72417 0.53278 2.3125 0.321045 3 0.321045H23C23.6875 0.321045 24.2763 0.53278 24.7663 0.95625C25.2554 1.379 25.5 1.88745 25.5 2.48161ZM3 4.64217H23V2.48161H3V4.64217ZM3 8.9633V15.445H23V8.9633H3Z" fill="#444444"/>
</svg>
