<svg width="21" height="19" viewBox="0 0 21 19" fill="none" xmlns="http://www.w3.org/2000/svg">
<path d="M9.5415 13.7713H11.4582V8.55791H9.5415V13.7713ZM10.4998 6.82011C10.7714 6.82011 10.9991 6.73669 11.1831 6.56987C11.3665 6.40362 11.4582 6.1974 11.4582 5.95121C11.4582 5.70502 11.3665 5.49851 11.1831 5.33168C10.9991 5.16543 10.7714 5.0823 10.4998 5.0823C10.2283 5.0823 10.0009 5.16543 9.8175 5.33168C9.6335 5.49851 9.5415 5.70502 9.5415 5.95121C9.5415 6.1974 9.6335 6.40362 9.8175 6.56987C10.0009 6.73669 10.2283 6.82011 10.4998 6.82011ZM10.4998 18.1158C9.17414 18.1158 7.92831 17.8876 6.76234 17.4311C5.59637 16.9753 4.58213 16.3563 3.71963 15.5743C2.85713 14.7923 2.17448 13.8727 1.67167 12.8155C1.16823 11.7584 0.916504 10.6288 0.916504 9.42682C0.916504 8.22484 1.16823 7.09526 1.67167 6.0381C2.17448 4.98093 2.85713 4.06134 3.71963 3.27933C4.58213 2.49732 5.59637 1.87808 6.76234 1.42162C7.92831 0.965735 9.17414 0.737793 10.4998 0.737793C11.8255 0.737793 13.0714 0.965735 14.2373 1.42162C15.4033 1.87808 16.4175 2.49732 17.28 3.27933C18.1425 4.06134 18.8252 4.98093 19.328 6.0381C19.8314 7.09526 20.0832 8.22484 20.0832 9.42682C20.0832 10.6288 19.8314 11.7584 19.328 12.8155C18.8252 13.8727 18.1425 14.7923 17.28 15.5743C16.4175 16.3563 15.4033 16.9753 14.2373 17.4311C13.0714 17.8876 11.8255 18.1158 10.4998 18.1158ZM10.4998 16.378C12.6241 16.378 14.4332 15.7012 15.9269 14.3474C17.42 12.9931 18.1665 11.3529 18.1665 9.42682C18.1665 7.50075 17.42 5.86055 15.9269 4.50622C14.4332 3.15247 12.6241 2.4756 10.4998 2.4756C8.37553 2.4756 6.56684 3.15247 5.07375 4.50622C3.58003 5.86055 2.83317 7.50075 2.83317 9.42682C2.83317 11.3529 3.58003 12.9931 5.07375 14.3474C6.56684 15.7012 8.37553 16.378 10.4998 16.378Z" fill="#444444"/>
</svg>
