<svg width="14" height="17" viewBox="0 0 14 17" fill="none" xmlns="http://www.w3.org/2000/svg">
<path d="M0.75 16.3199V0.679688H7.45833C9.05556 0.679688 10.4132 1.18655 11.5312 2.20027C12.6493 3.21399 13.2083 4.44493 13.2083 5.8931C13.2083 7.34127 12.6493 8.57222 11.5312 9.58594C10.4132 10.5997 9.05556 11.1065 7.45833 11.1065H4.58333V16.3199H0.75ZM4.58333 7.63091H7.65C8.17708 7.63091 8.62846 7.4606 9.00412 7.11999C9.37915 6.77996 9.56667 6.371 9.56667 5.8931C9.56667 5.41521 9.37915 5.00595 9.00412 4.66534C8.62846 4.32531 8.17708 4.1553 7.65 4.1553H4.58333V7.63091Z" fill="#444444"/>
</svg>
