<svg width="15" height="19" viewBox="0 0 15 19" fill="none" xmlns="http://www.w3.org/2000/svg">
<path d="M5.46563 10.904L6.23125 8.42758L4.21875 6.82011H6.7125L7.5 4.38718L8.2875 6.82011H10.7812L8.74687 8.42758L9.5125 10.904L7.5 9.36165L5.46563 10.904ZM2.25 18.9847V12.2725C1.69583 11.6642 1.26563 10.9691 0.959375 10.1871C0.653125 9.4051 0.5 8.5724 0.5 7.68901C0.5 5.74846 1.17812 4.10479 2.53437 2.75799C3.89062 1.41119 5.54583 0.737793 7.5 0.737793C9.45417 0.737793 11.1094 1.41119 12.4656 2.75799C13.8219 4.10479 14.5 5.74846 14.5 7.68901C14.5 8.5724 14.3469 9.4051 14.0406 10.1871C13.7344 10.9691 13.3042 11.6642 12.75 12.2725V18.9847L7.5 17.2469L2.25 18.9847ZM7.5 12.9024C8.95833 12.9024 10.1979 12.3956 11.2188 11.3818C12.2396 10.3681 12.75 9.13718 12.75 7.68901C12.75 6.24084 12.2396 5.0099 11.2188 3.99618C10.1979 2.98246 8.95833 2.4756 7.5 2.4756C6.04167 2.4756 4.80208 2.98246 3.78125 3.99618C2.76042 5.0099 2.25 6.24084 2.25 7.68901C2.25 9.13718 2.76042 10.3681 3.78125 11.3818C4.80208 12.3956 6.04167 12.9024 7.5 12.9024ZM4 16.3998L7.5 15.5091L11 16.3998V13.7062C10.4896 13.9958 9.93921 14.2237 9.34888 14.39C8.75796 14.5568 8.14167 14.6402 7.5 14.6402C6.85833 14.6402 6.24204 14.5568 5.65112 14.39C5.06079 14.2237 4.51042 13.9958 4 13.7062V16.3998Z" fill="#444444"/>
</svg>
