<svg width="54" height="55" viewBox="0 0 54 55" fill="none" xmlns="http://www.w3.org/2000/svg">
<circle cx="27" cy="27.3611" r="27" fill="#00BC39"/>
<path d="M34.9545 29.6316V25.4448H30.8182V23.5125H34.9545V19.3257H36.8636V23.5125H41V25.4448H36.8636V29.6316H34.9545ZM23.1818 27.0229C21.7818 27.0229 20.6364 26.572 19.7455 25.6703C18.8545 24.7685 18.4091 23.6091 18.4091 22.192C18.4091 20.7749 18.8545 19.6155 19.7455 18.7137C20.6364 17.812 21.7818 17.3611 23.1818 17.3611C24.5818 17.3611 25.7273 17.812 26.6182 18.7137C27.5091 19.6155 27.9545 20.7749 27.9545 22.192C27.9545 23.6091 27.5091 24.7685 26.6182 25.6703C25.7273 26.572 24.5818 27.0229 23.1818 27.0229ZM13 37.3611V34.3337C13 33.5822 13.1909 32.9005 13.5727 32.2886C13.9545 31.6767 14.4848 31.2205 15.1636 30.9199C16.7545 30.2113 18.1705 29.7121 19.4114 29.4223C20.6523 29.1324 21.9091 28.9875 23.1818 28.9875C24.4545 28.9875 25.7114 29.1324 26.9523 29.4223C28.1932 29.7121 29.5985 30.2113 31.1682 30.9199C31.847 31.2419 32.3826 31.7035 32.775 32.3047C33.1674 32.9059 33.3636 33.5822 33.3636 34.3337V37.3611H13ZM14.9091 35.4287H31.4545V34.3337C31.4545 33.9902 31.3697 33.6628 31.2 33.3514C31.0303 33.0401 30.7652 32.8093 30.4045 32.659C28.9197 31.929 27.6523 31.4566 26.6023 31.2419C25.5523 31.0272 24.4121 30.9199 23.1818 30.9199C21.9515 30.9199 20.8114 31.0326 19.7614 31.258C18.7114 31.4835 17.4333 31.9505 15.9273 32.659C15.6091 32.8093 15.3598 33.0401 15.1795 33.3514C14.9992 33.6628 14.9091 33.9902 14.9091 34.3337V35.4287ZM23.1818 25.0906C24.0091 25.0906 24.6932 24.8168 25.2341 24.2693C25.775 23.7218 26.0455 23.0294 26.0455 22.192C26.0455 21.3546 25.775 20.6622 25.2341 20.1147C24.6932 19.5672 24.0091 19.2935 23.1818 19.2935C22.3545 19.2935 21.6705 19.5672 21.1295 20.1147C20.5886 20.6622 20.3182 21.3546 20.3182 22.192C20.3182 23.0294 20.5886 23.7218 21.1295 24.2693C21.6705 24.8168 22.3545 25.0906 23.1818 25.0906Z" fill="white"/>
</svg>
