<svg width="5" height="19" viewBox="0 0 5 19" fill="none" xmlns="http://www.w3.org/2000/svg">
<path d="M1.67969 12.3545H3.32031C3.78906 12.3545 4.1862 12.1686 4.51172 11.7969C4.83724 11.4253 5 10.9718 5 10.4366V1.87324C5 1.36776 4.83724 0.929186 4.51172 0.557512C4.1862 0.185837 3.78906 0 3.32031 0H1.67969C1.21094 0 0.813802 0.185837 0.488281 0.557512C0.16276 0.929186 0 1.36776 0 1.87324V10.4366C0 10.9718 0.16276 11.4253 0.488281 11.7969C0.813802 12.1686 1.21094 12.3545 1.67969 12.3545ZM1.67969 1.87324H3.32031V10.4366H1.67969V1.87324ZM0 17.1268C0 17.6322 0.16276 18.0708 0.488281 18.4425C0.813802 18.8142 1.21094 19 1.67969 19H3.32031C3.78906 19 4.1862 18.8142 4.51172 18.4425C4.83724 18.0708 5 17.6322 5 17.1268V16.1455C5 15.6401 4.83724 15.2015 4.51172 14.8298C4.1862 14.4581 3.78906 14.2723 3.32031 14.2723H1.67969C1.21094 14.2723 0.813802 14.4581 0.488281 14.8298C0.16276 15.2015 0 15.6401 0 16.1455V17.1268ZM1.67969 16.1455H3.32031V17.1268H1.67969V16.1455Z" fill="black"/>
</svg>
