<svg width="28" height="28" viewBox="0 0 28 28" fill="none" xmlns="http://www.w3.org/2000/svg">
<mask id="mask0_945_48" style="mask-type:alpha" maskUnits="userSpaceOnUse" x="0" y="0" width="28" height="28">
<rect width="28" height="28" fill="#D9D9D9"/>
</mask>
<g mask="url(#mask0_945_48)">
<path d="M4.6665 22.1668V19.8335H6.99984V11.6668C6.99984 10.0529 7.48595 8.61872 8.45817 7.36416C9.43039 6.11038 10.6943 5.28905 12.2498 4.90016V4.0835C12.2498 3.59739 12.4202 3.18439 12.7608 2.8445C13.1007 2.50383 13.5137 2.3335 13.9998 2.3335C14.4859 2.3335 14.8989 2.50383 15.2388 2.8445C15.5795 3.18439 15.7498 3.59739 15.7498 4.0835V4.90016C17.3054 5.28905 18.5693 6.11038 19.5415 7.36416C20.5137 8.61872 20.9998 10.0529 20.9998 11.6668V19.8335H23.3332V22.1668H4.6665ZM13.9998 25.6668C13.3582 25.6668 12.8091 25.4386 12.3525 24.982C11.8952 24.5247 11.6665 23.9752 11.6665 23.3335H16.3332C16.3332 23.9752 16.1049 24.5247 15.6483 24.982C15.191 25.4386 14.6415 25.6668 13.9998 25.6668ZM9.33317 19.8335H18.6665V11.6668C18.6665 10.3835 18.2096 9.28489 17.2957 8.371C16.3818 7.45711 15.2832 7.00016 13.9998 7.00016C12.7165 7.00016 11.6179 7.45711 10.704 8.371C9.79011 9.28489 9.33317 10.3835 9.33317 11.6668V19.8335Z" fill="#444444"/>
</g>
</svg>
