<svg width="16" height="20" viewBox="0 0 16 20" fill="none" xmlns="http://www.w3.org/2000/svg">
<path d="M4.77928 -0.000126477C4.60107 0.0337677 4.44057 0.129552 4.32614 0.270307C4.21171 0.411061 4.1507 0.58773 4.15389 0.769104V1.53833H1.38928C0.773893 1.53833 0.307739 2.00449 0.307739 2.61987V18.846C0.307739 19.5383 0.773893 19.9999 1.38928 19.9999H14.5385C15.1539 19.9999 15.62 19.5337 15.62 18.9183V2.61987C15.697 2.00449 15.2262 1.53833 14.6108 1.53833H11.8462V0.769104C11.8462 0.565092 11.7652 0.369435 11.6209 0.225176C11.4766 0.0809172 11.281 -0.000126477 11.077 -0.000126477H4.92312C4.89903 -0.00125992 4.87491 -0.00125992 4.85082 -0.000126477C4.82673 -0.00125992 4.8026 -0.00125992 4.77851 -0.000126477H4.77928ZM5.69235 1.53833H10.3077V3.0768H5.69235V1.53833ZM1.8462 3.0768H4.15389V3.84603C4.15389 4.05004 4.23494 4.2457 4.3792 4.38996C4.52345 4.53421 4.71911 4.61526 4.92312 4.61526H11.077C11.281 4.61526 11.4766 4.53421 11.6209 4.38996C11.7652 4.2457 11.8462 4.05004 11.8462 3.84603V3.0768H14.1539V18.4614H1.8462V3.0768ZM3.38466 6.92295V9.99987H6.46159V6.92295H3.38466ZM4.15389 7.69218H5.69235V9.23064H4.15389V7.69218ZM8.00005 7.69218V9.23064H12.6154V7.69218H8.00005ZM3.38466 11.5383V14.6153H6.46159V11.5383H3.38466ZM8.00005 12.3076V13.846H12.6154V12.3076H8.00005Z" fill="white"/>
</svg>
