<svg width="22" height="22" viewBox="0 0 22 22" fill="none" xmlns="http://www.w3.org/2000/svg">
<path d="M19.6432 10.975H19.6202L17.8006 6.80625C17.6306 6.41754 17.3536 6.08731 17.0032 5.85549C16.6527 5.62367 16.2438 5.5002 15.8259 5.5H6.17473C5.75685 5.50023 5.34799 5.62371 4.99758 5.85553C4.64717 6.08735 4.37023 6.41757 4.20024 6.80625L2.38047 10.975H2.35747C1.97556 10.9754 1.60942 11.1301 1.33937 11.405C1.06932 11.68 0.917421 12.0528 0.916992 12.4416V17.575C0.917421 17.9638 1.06932 18.3366 1.33937 18.6116C1.60942 18.8865 1.97556 19.0412 2.35747 19.0416V20.9C2.3578 21.1916 2.47173 21.4712 2.67427 21.6774C2.8768 21.8837 3.1514 21.9997 3.43783 22H5.95866C6.24508 21.9997 6.51968 21.8837 6.72222 21.6774C6.92475 21.4712 7.03868 21.1916 7.03902 20.9V19.0416H14.9616V20.9C14.962 21.1916 15.0759 21.4712 15.2784 21.6774C15.481 21.8837 15.7556 21.9997 16.042 22H18.5628C18.8493 21.9997 19.1239 21.8837 19.3264 21.6774C19.5289 21.4712 19.6428 21.1916 19.6432 20.9V19.0416C20.0251 19.0412 20.3912 18.8865 20.6613 18.6116C20.9313 18.3366 21.0832 17.9638 21.0837 17.575V12.4416C21.0832 12.0528 20.9313 11.68 20.6613 11.405C20.3912 11.1301 20.0251 10.9754 19.6432 10.975V10.975ZM5.51639 7.40208C5.57306 7.27249 5.6654 7.16239 5.78224 7.08512C5.89907 7.00784 6.03541 6.9667 6.17473 6.96667H15.8259C15.9652 6.96674 16.1015 7.0079 16.2183 7.08517C16.3351 7.16245 16.4274 7.27252 16.4841 7.40208L18.0437 10.9749H3.9568L5.51639 7.40208ZM5.59854 20.5333H3.79794V19.0416H5.59854V20.5333ZM18.2027 20.5333H16.4021V19.0416H18.2027V20.5333ZM19.6432 17.575H2.35747V12.4416H19.6432V17.575Z" fill="white"/>
<path d="M3.66667 14.1389H7.33333V15.5833H3.66667V14.1389ZM14.6667 14.1389H18.3333V15.5833H14.6667V14.1389ZM11 0L0 4.34958V5.90605L11 1.55652L22 5.90605V4.34958L11 0Z" fill="white"/>
</svg>
