<svg width="15" height="21" viewBox="0 0 15 21" fill="none" xmlns="http://www.w3.org/2000/svg">
<path d="M14.4719 5.68438L9.44063 0.653125C9.29688 0.509375 9.15312 0.4375 8.9375 0.4375H1.75C0.959375 0.4375 0.3125 1.08437 0.3125 1.875V19.125C0.3125 19.9156 0.959375 20.5625 1.75 20.5625H13.25C14.0406 20.5625 14.6875 19.9156 14.6875 19.125V6.1875C14.6875 5.97188 14.6156 5.82812 14.4719 5.68438ZM8.9375 2.1625L12.9625 6.1875H8.9375V2.1625ZM13.25 19.125H1.75V1.875H7.5V6.1875C7.5 6.97813 8.14687 7.625 8.9375 7.625H13.25V19.125Z" fill="black"/>
<path d="M3.1875 14.8125H11.8125V16.25H3.1875V14.8125ZM3.1875 10.5H11.8125V11.9375H3.1875V10.5Z" fill="black"/>
</svg>
