<svg width="22" height="22" viewBox="0 0 22 22" fill="none" xmlns="http://www.w3.org/2000/svg">
<path d="M19.6428 10.975H19.6198L17.8002 6.80625C17.6302 6.41754 17.3532 6.08731 17.0028 5.85549C16.6524 5.62367 16.2435 5.5002 15.8256 5.5H6.17436C5.75648 5.50023 5.34762 5.62371 4.99721 5.85553C4.6468 6.08735 4.36986 6.41757 4.19988 6.80625L2.3801 10.975H2.3571C1.9752 10.9754 1.60905 11.1301 1.33901 11.405C1.06896 11.68 0.917055 12.0528 0.916626 12.4416V17.575C0.917055 17.9638 1.06896 18.3366 1.33901 18.6116C1.60905 18.8865 1.9752 19.0412 2.3571 19.0416V20.9C2.35744 21.1916 2.47137 21.4712 2.6739 21.6774C2.87643 21.8837 3.15103 21.9997 3.43746 22H5.95829C6.24472 21.9997 6.51932 21.8837 6.72185 21.6774C6.92439 21.4712 7.03832 21.1916 7.03865 20.9V19.0416H14.9613V20.9C14.9616 21.1916 15.0755 21.4712 15.2781 21.6774C15.4806 21.8837 15.7552 21.9997 16.0416 22H18.5625C18.8489 21.9997 19.1235 21.8837 19.326 21.6774C19.5286 21.4712 19.6425 21.1916 19.6428 20.9V19.0416C20.0247 19.0412 20.3909 18.8865 20.6609 18.6116C20.931 18.3366 21.0829 17.9638 21.0833 17.575V12.4416C21.0829 12.0528 20.931 11.68 20.6609 11.405C20.3909 11.1301 20.0247 10.9754 19.6428 10.975ZM5.51602 7.40208C5.57269 7.27249 5.66503 7.16239 5.78187 7.08512C5.89871 7.00784 6.03504 6.9667 6.17436 6.96667H15.8256C15.9648 6.96674 16.1011 7.0079 16.2179 7.08517C16.3347 7.16245 16.4271 7.27252 16.4837 7.40208L18.0433 10.9749H3.95644L5.51602 7.40208ZM5.59817 20.5333H3.79758V19.0416H5.59817V20.5333ZM18.2023 20.5333H16.4017V19.0416H18.2023V20.5333ZM19.6428 17.575H2.3571V12.4416H19.6428V17.575Z" fill="black"/>
<path d="M3.66667 14.1389H7.33333V15.5833H3.66667V14.1389ZM14.6667 14.1389H18.3333V15.5833H14.6667V14.1389ZM11 0L0 4.34958V5.90605L11 1.55652L22 5.90605V4.34958L11 0Z" fill="black"/>
</svg>
