<svg width="54" height="54" viewBox="0 0 54 54" fill="none" xmlns="http://www.w3.org/2000/svg">
<circle cx="27" cy="27" r="27" fill="#00BC39"/>
<path d="M18.6 29.835H29.555V27.735H18.6V29.835ZM18.6 25.285H35.4V23.185H18.6V25.285ZM18.6 20.735H35.4V18.635H18.6V20.735ZM13 41V15.1C13 14.5633 13.21 14.0792 13.63 13.6475C14.05 13.2158 14.54 13 15.1 13H38.9C39.4367 13 39.9208 13.2158 40.3525 13.6475C40.7842 14.0792 41 14.5633 41 15.1V33.3C41 33.8367 40.7842 34.3208 40.3525 34.7525C39.9208 35.1842 39.4367 35.4 38.9 35.4H18.6L13 41ZM15.1 35.925L17.725 33.3H38.9V15.1H15.1V35.925Z" fill="white"/>
</svg>
