<svg width="23" height="23" viewBox="0 0 23 23" fill="none" xmlns="http://www.w3.org/2000/svg">
<path d="M10.7953 14.7469C11.5141 15.0313 12.1703 15.4094 12.761 15.8797C13.3516 16.3484 13.8563 16.8953 14.2766 17.5141C15.1338 18.7626 15.5955 20.2402 15.6016 21.7547V22.4375H14.2344V21.7531C14.2373 20.945 14.0792 20.1445 13.7694 19.3981C13.4595 18.6518 13.0041 17.9747 12.4297 17.4062C11.8659 16.8504 11.2029 16.4052 10.475 16.0937C9.71856 15.7696 8.90425 15.6022 8.08128 15.6016C7.27318 15.5986 6.4726 15.7567 5.72627 16.0666C4.97994 16.3764 4.3028 16.8318 3.7344 17.4062C3.17876 17.9702 2.7336 18.6332 2.4219 19.3609C2.10003 20.1016 1.93753 20.9 1.92971 21.7531V22.4375H0.562526V21.7531C0.558529 20.2376 1.02114 18.7575 1.88753 17.5141C2.75049 16.2691 3.96218 15.3069 5.37034 14.7484C5.05044 14.5286 4.75914 14.2699 4.50315 13.9781C4.2502 13.6909 4.03154 13.3753 3.85159 13.0375C3.67234 12.7 3.53587 12.3415 3.44534 11.9703C3.35301 11.5921 3.30322 11.2048 3.2969 10.8156C3.2969 10.1547 3.4219 9.53438 3.6719 8.95781C4.16074 7.8155 5.07051 6.90517 6.21253 6.41562C6.80169 6.16482 7.43515 6.03463 8.07548 6.03275C8.71581 6.03087 9.35002 6.15734 9.94065 6.40469C11.0833 6.8939 11.9936 7.80427 12.4828 8.94688C12.8874 9.89829 12.9735 10.955 12.7282 11.9594C12.6344 12.3297 12.4969 12.6859 12.3125 13.0281C12.1293 13.3668 11.9109 13.6852 11.661 13.9781C11.411 14.2703 11.1219 14.525 10.7953 14.7469V14.7469ZM8.08128 14.2344C8.55159 14.2344 8.99378 14.1453 9.40628 13.9687C10.2241 13.6212 10.8751 12.9697 11.2219 12.1516C11.4078 11.7312 11.5 11.2859 11.5 10.8172C11.502 10.3698 11.4141 9.92648 11.2415 9.51367C11.069 9.10086 10.8152 8.72693 10.4953 8.41406C10.179 8.10555 9.81018 7.85582 9.40628 7.67656C8.9895 7.49041 8.53772 7.39558 8.08128 7.39844C7.61252 7.39844 7.17034 7.4875 6.75784 7.66406C5.93547 8.01482 5.28047 8.66982 4.92971 9.49219C4.75315 9.90469 4.66409 10.3469 4.66409 10.8172C4.66409 11.2859 4.75315 11.7281 4.92971 12.1406C5.1094 12.5531 5.35159 12.9172 5.65784 13.2297C5.97488 13.5501 6.35267 13.8039 6.76907 13.9765C7.18547 14.149 7.63212 14.2367 8.08284 14.2344H8.08128ZM22.4375 0.5625V11.5H19.7032L15.6016 15.6016V11.5H14.2344V10.1328H16.9688V12.3016L19.1375 10.1328H21.0703V1.92969H7.39846V4.38594C7.16929 4.41489 6.94106 4.45085 6.71409 4.49375C6.48135 4.53794 6.25289 4.60224 6.03128 4.68594V0.5625H22.4375Z" fill="white"/>
</svg>
