<svg width="18" height="19" viewBox="0 0 18 19" fill="none" xmlns="http://www.w3.org/2000/svg">
<path d="M4 14.0332H11V12.0332H4V14.0332ZM4 10.0332H14V8.0332H4V10.0332ZM4 6.0332H14V4.0332H4V6.0332ZM2 18.0332C1.45 18.0332 0.979 17.8375 0.587 17.4462C0.195667 17.0542 0 16.5832 0 16.0332V2.0332C0 1.4832 0.195667 1.0122 0.587 0.620203C0.979 0.22887 1.45 0.0332031 2 0.0332031H16C16.55 0.0332031 17.021 0.22887 17.413 0.620203C17.8043 1.0122 18 1.4832 18 2.0332V16.0332C18 16.5832 17.8043 17.0542 17.413 17.4462C17.021 17.8375 16.55 18.0332 16 18.0332H2ZM2 16.0332H16V2.0332H2V16.0332Z" fill="#2DA9EB"/>
</svg>
