<svg width="27" height="27" viewBox="0 0 27 27" fill="none" xmlns="http://www.w3.org/2000/svg">
<mask id="mask0_945_51" style="mask-type:alpha" maskUnits="userSpaceOnUse" x="0" y="0" width="27" height="27">
<rect width="27" height="27" fill="#D9D9D9"/>
</mask>
<g mask="url(#mask0_945_51)">
<path d="M22.05 23.625L14.9625 16.5375C14.4 16.9875 13.7531 17.3438 13.0219 17.6062C12.2906 17.8687 11.5125 18 10.6875 18C8.64375 18 6.91425 17.2924 5.499 15.8771C4.083 14.4611 3.375 12.7312 3.375 10.6875C3.375 8.64375 4.083 6.91388 5.499 5.49788C6.91425 4.08263 8.64375 3.375 10.6875 3.375C12.7312 3.375 14.4611 4.08263 15.8771 5.49788C17.2924 6.91388 18 8.64375 18 10.6875C18 11.5125 17.8687 12.2906 17.6062 13.0219C17.3438 13.7531 16.9875 14.4 16.5375 14.9625L23.625 22.05L22.05 23.625ZM10.6875 15.75C12.0938 15.75 13.2892 15.258 14.274 14.274C15.258 13.2892 15.75 12.0938 15.75 10.6875C15.75 9.28125 15.258 8.08575 14.274 7.101C13.2892 6.117 12.0938 5.625 10.6875 5.625C9.28125 5.625 8.08575 6.117 7.101 7.101C6.117 8.08575 5.625 9.28125 5.625 10.6875C5.625 12.0938 6.117 13.2892 7.101 14.274C8.08575 15.258 9.28125 15.75 10.6875 15.75Z" fill="#444444"/>
</g>
</svg>
