<svg width="15" height="21" viewBox="0 0 15 21" fill="none" xmlns="http://www.w3.org/2000/svg">
<path d="M3 15.5H12V17H3V15.5ZM3 11H12V12.5H3V11Z" fill="white"/>
<path d="M14.1594 5.24688L9.12813 0.215625C8.98438 0.071875 8.84063 0 8.625 0H1.4375C0.646875 0 0 0.646875 0 1.4375V18.6875C0 19.4781 0.646875 20.125 1.4375 20.125H12.9375C13.7281 20.125 14.375 19.4781 14.375 18.6875V5.75C14.375 5.53437 14.3031 5.39063 14.1594 5.24688ZM8.625 1.725L12.65 5.75H8.625V1.725ZM12.9375 18.6875H1.4375V1.4375H7.1875V5.75C7.1875 6.54063 7.83437 7.1875 8.625 7.1875H12.9375V18.6875Z" fill="white"/>
</svg>
