<svg width="17" height="17" viewBox="0 0 17 17" fill="none" xmlns="http://www.w3.org/2000/svg">
<path d="M12.219 10.8986C12.219 8.44687 10.2109 8.16744 8.59745 7.94325C6.83901 7.69887 5.84398 7.48637 5.84398 5.97231C5.84398 4.70156 7.17582 4.25 8.31641 4.25C8.88482 4.23164 9.44946 4.34865 9.96376 4.59139C10.4781 4.83413 10.9273 5.19565 11.2744 5.64613L12.101 4.97887C11.7293 4.50084 11.2667 4.10099 10.74 3.80232C10.2132 3.50364 9.63256 3.31203 9.03148 3.2385V1.59375H7.96898V3.19919C6.04851 3.31606 4.78148 4.39981 4.78148 5.97231C4.78148 8.48512 6.81616 8.76828 8.45082 8.99512C10.179 9.23578 11.1565 9.44244 11.1565 10.8986C11.1565 12.5093 9.49207 12.75 8.50023 12.75C6.67804 12.75 5.90879 12.2379 5.19479 11.3539L4.36816 12.0211C4.78932 12.5761 5.33403 13.0253 5.95908 13.333C6.58413 13.6407 7.2723 13.7986 7.96898 13.7939V15.4062H9.03148V13.7886C11.0109 13.6271 12.219 12.5524 12.219 10.8986Z" fill="#49C0FF"/>
</svg>
